<svg width="773" height="515" viewBox="0 0 773 515" fill="none" xmlns="http://www.w3.org/2000/svg">
<path d="M483.658 480.486H225.023C216.146 480.486 208.95 473.289 208.95 464.413V122.776C208.95 113.897 216.146 106.702 225.023 106.702H483.658C492.533 106.702 499.729 113.897 499.729 122.776V464.413C499.729 473.289 492.533 480.486 483.658 480.486Z" fill="#545454"/>
<path d="M481.618 458.23H227.061V128.96H481.618V458.23Z" fill="white"/>
<path d="M354.337 103.96C350.495 103.96 347.38 100.844 347.38 96.9995C347.38 93.1575 350.495 90.0418 354.337 90.0418C358.182 90.0418 361.298 93.1575 361.298 96.9995C361.298 100.844 358.182 103.96 354.337 103.96ZM374.066 100.836C373.952 90.0338 365.166 81.3122 354.337 81.3122C343.508 81.3122 334.723 90.0338 334.608 100.836H316.327V132.096H392.348V100.836H374.066Z" fill="#5498DE"/>
<path d="M471.221 173.869H298.916V163.343H471.221V173.869Z" fill="#E9F1FA"/>
<path d="M471.221 194.421H298.916V183.898H471.221V194.421Z" fill="#E9F1FA"/>
<path d="M382.887 214.975H298.916V204.449H382.887V214.975Z" fill="#E9F1FA"/>
<path d="M244.825 214.203H290.195V164.116H244.825V214.203ZM291.74 215.748H243.28V162.571H291.74V215.748Z" fill="#CFCFCF"/>
<path d="M261.03 172.758L272.389 188.553L303.698 159.105L309.255 166.287L270.764 203.063L254.168 179.002L261.03 172.758Z" fill="#1963AD"/>
<path d="M471.221 241.679H298.916V231.154H471.221V241.679Z" fill="#E9F1FA"/>
<path d="M471.221 262.231H298.916V251.706H471.221V262.231Z" fill="#E9F1FA"/>
<path d="M382.887 282.783H298.916V272.259H382.887V282.783Z" fill="#E9F1FA"/>
<path d="M244.825 282.01H290.195V231.927H244.825V282.01ZM291.74 283.555H243.28V230.382H291.74V283.555Z" fill="#CFCFCF"/>
<path d="M261.03 240.566L272.389 256.363L303.698 226.916L309.255 234.095L270.764 270.873L254.168 246.813L261.03 240.566Z" fill="#1963AD"/>
<path d="M471.221 309.487H298.916V298.963H471.221V309.487Z" fill="#E9F1FA"/>
<path d="M471.221 330.041H298.916V319.515H471.221V330.041Z" fill="#E9F1FA"/>
<path d="M382.887 350.593H298.916V340.069H382.887V350.593Z" fill="#E9F1FA"/>
<path d="M244.825 349.82H290.195V299.736H244.825V349.82ZM291.74 351.365H243.28V298.191H291.74V351.365Z" fill="#CFCFCF"/>
<path d="M261.03 308.376L272.389 324.173L303.698 294.726L309.255 301.905L270.764 338.681L254.168 314.62L261.03 308.376Z" fill="#1963AD"/>
<path d="M471.221 377.298H298.916V366.774H471.221V377.298Z" fill="#E9F1FA"/>
<path d="M471.221 397.849H298.916V387.325H471.221V397.849Z" fill="#E9F1FA"/>
<path d="M382.887 418.403H298.916V407.876H382.887V418.403Z" fill="#E9F1FA"/>
<path d="M244.825 417.63H290.195V367.546H244.825V417.63ZM291.74 419.175H243.28V366.001H291.74V419.175Z" fill="#CFCFCF"/>
<path d="M261.03 376.186L272.389 391.983L303.698 362.533L309.255 369.715L270.764 406.491L254.168 382.43L261.03 376.186Z" fill="#1963AD"/>
<path d="M627.988 480.486H547.948V400.108H627.988V480.486Z" fill="#CFCFCF"/>
<path d="M592.794 412.833H583.149V400.107H592.794V412.833Z" fill="#545454"/>
<path d="M685.298 480.486H627.989V400.108H685.298V480.486Z" fill="#B4D8FD"/>
<path d="M660.311 412.833H652.979V400.107H660.311V412.833Z" fill="#545454"/>
<path d="M612.563 400.108H532.524V246.277H612.563V400.108Z" fill="#1963AD"/>
<path d="M577.369 270.634H567.721V246.276H577.369V270.634Z" fill="#545454"/>
<path d="M669.873 400.107H612.568V246.276H669.873V400.107Z" fill="#5498DE"/>
<path d="M644.886 270.634H637.551V246.276H644.886V270.634Z" fill="#545454"/>
<path d="M500.887 480.486H397.947V400.108H500.887V480.486Z" fill="#5498DE"/>
<path d="M455.624 412.833H443.219V400.107H455.624V412.833Z" fill="#545454"/>
<path d="M569.008 480.486H500.888V400.107H569.008V480.486Z" fill="#D9E8F7"/>
<path d="M543.153 412.833H530.744V400.108H543.153V412.833Z" fill="#545454"/>
<path d="M490.642 400.108H410.604V319.727H490.642V400.108Z" fill="#B4D8FD"/>
<path d="M455.443 332.455H445.798V319.727H455.443V332.455Z" fill="#545454"/>
<path d="M547.951 400.107H490.645V319.726H547.951V400.107Z" fill="#E9F1FA"/>
<path d="M522.965 332.454H515.627V319.726H522.965V332.454Z" fill="#545454"/>
<path d="M730.372 481.13H41.8729V479.842H730.372V481.13Z" fill="#545454"/>
<path d="M170.326 243.429L167.67 245.203L153.518 224.042C153.027 223.308 153.224 222.314 153.957 221.825C154.691 221.333 155.683 221.531 156.173 222.265L170.326 243.429Z" fill="#545454"/>
<path d="M156.306 249.001C156.306 249.001 157.4 239.909 159.673 239.489C161.946 239.067 168.68 239.237 170.027 239.489C171.374 239.742 175.078 242.098 175.835 244.457L161.44 258.428L156.306 249.001Z" fill="#EB9481"/>
<path d="M143.035 172.629C143.035 172.629 145.897 176.157 146.783 181.142C147.135 183.125 146.548 185.141 144.798 186.14L135.032 172.629H143.035Z" fill="#545454"/>
<path d="M129.135 170.24C120.762 170.24 113.905 176.716 113.286 184.93L113.157 184.909L109.719 206.359C108.962 211.082 112.177 215.524 116.899 216.281C121.622 217.038 125.244 218.379 126.82 209.102L127.064 207.58C127.742 207.667 128.433 207.719 129.135 207.719C137.916 207.719 145.035 200.599 145.035 191.818V186.14C145.035 177.36 137.916 170.24 129.135 170.24Z" fill="#EB9481"/>
<path d="M138.836 183.437C138.964 183.854 139.056 184.271 139.136 184.686C139.181 184.894 139.208 185.103 139.242 185.311C139.274 185.52 139.309 185.728 139.328 185.937C139.377 186.352 139.424 186.769 139.445 187.186L139.487 187.809L139.501 188.435L138.796 187.729C139.061 187.727 139.326 187.711 139.592 187.716C139.728 187.721 139.833 187.716 140.062 187.737C140.263 187.763 140.46 187.817 140.645 187.894C141.401 188.206 141.861 189.027 141.813 189.792C141.782 190.175 141.638 190.541 141.41 190.829C141.18 191.12 140.86 191.314 140.529 191.411C140.362 191.46 140.189 191.473 140.023 191.468C139.844 191.455 139.727 191.424 139.592 191.396C139.326 191.337 139.061 191.27 138.796 191.19L138.785 191.185C138.764 191.18 138.752 191.156 138.759 191.136C138.764 191.12 138.779 191.11 138.796 191.11L139.592 191.097C139.724 191.095 139.859 191.097 139.984 191.084C140.11 191.069 140.233 191.035 140.35 190.987C140.823 190.793 141.146 190.299 141.138 189.792C141.141 189.284 140.813 188.798 140.344 188.61C140.228 188.563 140.106 188.533 139.982 188.52C139.86 188.509 139.724 188.515 139.592 188.515L138.796 188.512H138.718L138.719 188.435C138.73 186.769 138.726 185.103 138.756 183.437C138.756 183.416 138.774 183.398 138.796 183.398C138.813 183.398 138.827 183.411 138.832 183.426L138.836 183.437Z" fill="#545454"/>
<path d="M143.229 183.555C143.229 184.165 142.735 184.66 142.125 184.66C141.515 184.66 141.021 184.165 141.021 183.555C141.021 182.947 141.515 182.453 142.125 182.453C142.735 182.453 143.229 182.947 143.229 183.555Z" fill="#545454"/>
<path d="M141.205 194.72C141.205 194.72 139.376 192.055 134.043 192.125L141.205 194.72Z" fill="white"/>
<path d="M139.34 179.103C139.241 179.515 140.096 180.074 141.25 180.354C142.405 180.633 143.421 180.527 143.521 180.115C143.62 179.703 142.765 179.144 141.611 178.864C140.457 178.585 139.44 178.691 139.34 179.103Z" fill="#545454"/>
<path d="M136.83 184.068C136.83 184.678 136.336 185.172 135.727 185.172C135.117 185.172 134.623 184.678 134.623 184.068C134.623 183.46 135.117 182.966 135.727 182.966C136.336 182.966 136.83 183.46 136.83 184.068Z" fill="#545454"/>
<path d="M132.95 180.658C133.056 181.068 134.074 181.16 135.224 180.864C136.374 180.565 137.22 179.994 137.115 179.584C137.009 179.172 135.991 179.082 134.841 179.378C133.691 179.674 132.844 180.249 132.95 180.658Z" fill="#545454"/>
<path d="M142.28 195.467C141.472 195.408 140.703 195.243 139.949 195.042C139.568 194.952 139.201 194.823 138.827 194.713C138.459 194.589 138.095 194.455 137.728 194.326C137.37 194.177 137.007 194.038 136.651 193.883C136.298 193.719 135.94 193.569 135.595 193.384C134.898 193.031 134.215 192.642 133.57 192.153L133.563 192.148C133.549 192.138 133.546 192.117 133.557 192.104C133.565 192.091 133.58 192.089 133.593 192.094L137.959 193.721L142.302 195.408C142.319 195.413 142.327 195.434 142.321 195.449C142.315 195.462 142.302 195.47 142.289 195.47L142.28 195.467Z" fill="#545454"/>
<path d="M110.996 186.514C110.996 186.514 124.846 174.311 138.253 174.316C138.253 174.316 144.109 174.056 146.273 179.018C146.273 179.018 143.692 158.763 121.306 162.177C98.9202 165.592 107.851 188.45 107.851 188.45L110.996 186.514Z" fill="#5498DE"/>
<path d="M126.773 176.809C126.773 176.809 124.046 180.12 118.348 186.14C116.939 187.629 114.498 189.689 114.498 189.689C114.498 189.689 115.086 186.573 114.036 184.302C114.036 184.302 120.401 179.162 126.773 176.809Z" fill="#545454"/>
<path d="M135.572 174.017C135.572 174.017 137.324 177.192 141.793 177.411C141.793 177.411 134.652 179.757 131.868 174.792L135.572 174.017Z" fill="#545454"/>
<path d="M112.146 191.581L111.091 197.802L107.851 188.45L113.286 184.93L112.146 191.581Z" fill="#545454"/>
<path d="M108.828 187.294C108.828 189.457 110.246 191.21 111.994 191.21C113.742 191.21 115.16 189.457 115.16 187.294C115.16 185.131 113.742 183.377 111.994 183.377C110.246 183.377 108.828 185.131 108.828 187.294Z" fill="#EB9481"/>
<path d="M113.806 186.223C113.516 185.986 113.235 185.806 112.951 185.731C112.814 185.687 112.68 185.667 112.554 185.672C112.429 185.677 112.314 185.682 112.206 185.726C111.793 185.87 111.48 186.225 111.298 186.694C111.247 186.81 111.219 186.933 111.187 187.057C111.177 187.121 111.16 187.186 111.154 187.25L111.144 187.348L111.134 187.42C111.129 187.441 111.131 187.436 111.125 187.443C111.122 187.433 111.115 187.428 111.097 187.399C111.068 187.34 110.947 187.266 110.899 187.268C110.805 187.273 110.952 187.309 111.083 187.291C111.367 187.26 111.726 187.183 112.087 187.127C112.451 187.088 112.858 187.031 113.236 187.173L113.248 187.178C113.268 187.186 113.278 187.206 113.271 187.227C113.265 187.242 113.251 187.253 113.236 187.253C112.895 187.268 112.565 187.399 112.242 187.528C111.917 187.657 111.597 187.801 111.252 187.904C111.08 187.948 110.897 187.997 110.696 187.945C110.597 187.92 110.503 187.845 110.454 187.752C110.402 187.662 110.387 187.564 110.38 187.472C110.365 187.106 110.422 186.745 110.552 186.406C110.683 186.068 110.888 185.757 111.164 185.52C111.436 185.278 111.787 185.115 112.153 185.09C112.519 185.056 112.89 185.167 113.19 185.368C113.49 185.574 113.721 185.865 113.878 186.184C113.887 186.205 113.879 186.228 113.86 186.236C113.846 186.243 113.83 186.241 113.819 186.23L113.806 186.223Z" fill="#545454"/>
<path d="M129.719 175.745C129.719 175.745 139.218 163.014 150.7 166.091C162.182 169.169 146.273 179.018 146.273 179.018C146.273 179.018 141.848 171.563 129.719 175.745Z" fill="#E9F1FA"/>
<path d="M120.301 162.785C120.409 163.344 119.213 164.047 117.63 164.353C116.047 164.657 114.676 164.454 114.567 163.892C114.459 163.334 115.655 162.633 117.238 162.327C118.822 162.02 120.193 162.226 120.301 162.785Z" fill="#545454"/>
<path d="M127.064 207.58C127.064 207.58 123.634 205.718 119.984 202.002C119.984 202.002 121.513 207.307 126.82 209.102L127.064 207.58Z" fill="#545454"/>
<path d="M153.85 460.937L177.914 471.43C181.504 472.993 183.798 476.569 183.724 480.486L131.405 480.373L134.19 460.893L153.85 460.937Z" fill="#838383"/>
<path d="M131.413 476.902C135.722 477.149 140.032 477.285 144.342 477.378C146.497 477.437 148.651 477.453 150.806 477.489L157.271 477.535L163.736 477.52C165.891 477.491 168.046 477.486 170.201 477.437C174.512 477.36 178.822 477.244 183.132 477.012C178.823 476.763 174.513 476.626 170.203 476.534C168.049 476.474 165.893 476.459 163.738 476.423L157.274 476.376L150.809 476.394C148.654 476.423 146.499 476.431 144.344 476.479C140.033 476.554 135.723 476.67 131.413 476.902Z" fill="#545454"/>
<path d="M137.71 469.164C137.704 471.788 139.827 473.92 142.451 473.925C145.075 473.93 147.207 471.808 147.213 469.184C147.219 466.56 145.096 464.428 142.472 464.423C139.847 464.418 137.716 466.54 137.71 469.164Z" fill="#545454"/>
<path d="M174.668 469.532C174.052 469.277 173.457 469.274 172.892 469.365C172.328 469.462 171.792 469.679 171.311 469.993C170.83 470.304 170.411 470.734 170.098 471.242C169.792 471.752 169.605 472.364 169.686 473.013L169.786 473.073C169.938 472.867 170.065 472.645 170.24 472.46C170.323 472.364 170.397 472.261 170.485 472.169L170.751 471.898C171.12 471.551 171.517 471.231 171.947 470.961C172.37 470.678 172.814 470.428 173.276 470.209C173.507 470.101 173.741 470.001 173.979 469.908C174.214 469.81 174.455 469.72 174.697 469.645L174.668 469.532Z" fill="#545454"/>
<path d="M168.527 466.911C167.91 466.656 167.315 466.656 166.751 466.743C166.187 466.841 165.651 467.057 165.17 467.371C164.689 467.683 164.27 468.116 163.957 468.62C163.651 469.13 163.463 469.743 163.545 470.392L163.645 470.451C163.796 470.245 163.924 470.024 164.099 469.838C164.182 469.743 164.255 469.64 164.344 469.55L164.61 469.277C164.979 468.929 165.375 468.61 165.806 468.34C166.229 468.059 166.673 467.807 167.135 467.59C167.366 467.482 167.6 467.379 167.838 467.289C168.073 467.189 168.314 467.101 168.556 467.024L168.527 466.911Z" fill="#545454"/>
<path d="M162.844 464.534C162.227 464.279 161.632 464.276 161.067 464.366C160.504 464.464 159.967 464.678 159.487 464.992C159.005 465.304 158.586 465.736 158.273 466.241C157.967 466.751 157.78 467.366 157.861 468.015L157.962 468.072C158.113 467.866 158.241 467.647 158.416 467.462C158.499 467.364 158.572 467.261 158.661 467.171L158.926 466.898C159.295 466.55 159.692 466.231 160.123 465.96C160.545 465.68 160.99 465.427 161.451 465.211C161.682 465.103 161.917 465.002 162.155 464.91C162.39 464.812 162.631 464.722 162.872 464.645L162.844 464.534Z" fill="#545454"/>
<path d="M122.491 460.937L146.555 471.43C150.146 472.993 152.439 476.569 152.366 480.486L100.047 480.373L102.831 460.893L122.491 460.937Z" fill="#CFCFCF"/>
<path d="M100.054 476.902C104.364 477.149 108.673 477.285 112.983 477.378C115.138 477.437 117.293 477.453 119.448 477.489L125.913 477.535L132.378 477.52C134.533 477.491 136.688 477.486 138.843 477.437C143.153 477.36 147.463 477.244 151.774 477.012C147.464 476.763 143.155 476.626 138.845 476.534C136.69 476.474 134.535 476.459 132.38 476.423L125.915 476.376L119.45 476.394C117.295 476.423 115.14 476.431 112.985 476.479C108.675 476.554 104.365 476.67 100.054 476.902Z" fill="#545454"/>
<path d="M106.351 469.164C106.346 471.788 108.468 473.92 111.092 473.925C113.717 473.93 115.849 471.808 115.854 469.184C115.86 466.56 113.737 464.428 111.113 464.423C108.489 464.418 106.357 466.54 106.351 469.164Z" fill="#545454"/>
<path d="M143.31 469.532C142.693 469.277 142.098 469.274 141.533 469.365C140.97 469.462 140.434 469.679 139.953 469.993C139.472 470.304 139.052 470.734 138.739 471.242C138.434 471.752 138.246 472.364 138.327 473.013L138.428 473.073C138.579 472.867 138.707 472.645 138.882 472.46C138.965 472.364 139.038 472.261 139.127 472.169L139.392 471.898C139.761 471.551 140.158 471.231 140.589 470.961C141.011 470.678 141.456 470.428 141.918 470.209C142.148 470.101 142.383 470.001 142.621 469.908C142.856 469.81 143.097 469.72 143.338 469.645L143.31 469.532Z" fill="#545454"/>
<path d="M137.169 466.911C136.552 466.656 135.957 466.656 135.392 466.743C134.828 466.841 134.292 467.057 133.812 467.371C133.33 467.683 132.911 468.116 132.598 468.62C132.292 469.13 132.105 469.743 132.186 470.392L132.286 470.451C132.438 470.245 132.566 470.024 132.741 469.838C132.824 469.743 132.897 469.64 132.986 469.55L133.251 469.277C133.62 468.929 134.017 468.61 134.448 468.34C134.87 468.059 135.315 467.807 135.776 467.59C136.007 467.482 136.241 467.379 136.479 467.289C136.714 467.189 136.956 467.101 137.197 467.024L137.169 466.911Z" fill="#545454"/>
<path d="M131.485 464.534C130.868 464.279 130.274 464.276 129.709 464.366C129.145 464.464 128.609 464.678 128.128 464.992C127.647 465.304 127.227 465.736 126.915 466.241C126.609 466.751 126.421 467.366 126.503 468.015L126.603 468.072C126.755 467.866 126.882 467.647 127.057 467.462C127.14 467.364 127.213 467.261 127.302 467.171L127.568 466.898C127.937 466.55 128.333 466.231 128.764 465.96C129.187 465.68 129.631 465.427 130.093 465.211C130.324 465.103 130.558 465.002 130.796 464.91C131.031 464.812 131.272 464.722 131.514 464.645L131.485 464.534Z" fill="#545454"/>
<path d="M162.17 460.741L157.471 364.25C157.339 361.542 157.018 358.843 156.51 356.175L146.527 303.735L86.0109 299.005C86.0109 299.005 80.0671 323.177 92.2458 346.447L98.5156 461.506L130.811 461.3L130.807 460.939L162.17 460.741Z" fill="#545454"/>
<path d="M125.957 306.895L126.369 311.71L126.753 316.526L127.52 326.159L128.928 345.432L129.279 350.253L129.6 355.073L130.235 364.717L131.503 384.001L131.574 385.206C131.595 385.608 131.577 386.012 131.581 386.414L131.573 388.832L131.556 393.662L131.523 403.326L131.49 412.988L131.468 417.821L131.418 422.652L131.213 441.977L131.048 451.641L130.965 456.472L130.855 461.3H130.768L130.746 422.662L130.736 403.344L130.73 393.685L130.728 388.855L130.726 386.439C130.721 386.038 130.737 385.636 130.714 385.234L130.638 384.029L125.871 306.9L125.957 306.895Z" fill="#838383"/>
<path d="M173.619 274.435L165.324 261.526L146.169 266.71L141.156 232.377C141.107 232.009 141.062 231.697 141.021 231.45C139.767 223.898 126.405 210.76 126.405 210.76L123.454 213.799L109.719 206.359C109.719 206.359 98.3024 210.948 91.2884 219.85C84.2743 228.754 86.0109 299.005 86.0109 299.005C86.0109 299.005 100.191 310.495 110.449 312.382C120.708 314.272 147.627 306.895 147.627 306.895C147.627 306.895 147.162 300.998 146.475 292.491L173.619 274.435Z" fill="#5498DE"/>
<path d="M123.455 213.798L116.985 219.35C115.931 220.256 114.372 220.267 113.312 219.368C110.325 216.839 105.024 211.635 106.691 207.781L109.719 206.359L123.455 213.798Z" fill="white"/>
<path d="M123.454 213.798L126.65 217.244C127.516 218.178 129.043 217.996 129.665 216.883L130.603 215.207L126.405 210.76L123.454 213.798Z" fill="white"/>
<path d="M106.374 228.679L118.315 262.814L155.454 244.006L161.331 258.418L128.278 285.77C125.138 288.368 121.277 289.944 117.215 290.284C110.323 290.86 103.622 287.835 99.5052 282.275C93.911 274.723 86.8233 264.374 86.1051 259.525C84.9029 251.409 78.7746 235.936 91.2883 219.85L106.374 228.679Z" fill="#5498DE"/>
<path d="M142.937 250.361C140.926 251.478 138.906 252.581 136.88 253.667C134.856 254.762 132.822 255.833 130.789 256.909C128.751 257.975 126.72 259.052 124.674 260.102C122.63 261.158 120.592 262.221 118.54 263.259L117.959 263.553L117.825 262.911C117.518 261.439 117.181 259.96 116.834 258.49C116.487 257.017 116.137 255.547 115.764 254.079C115.014 251.151 114.235 248.226 113.359 245.334C112.495 242.438 111.55 239.564 110.458 236.749C109.906 235.343 109.324 233.948 108.659 232.593C107.998 231.236 107.267 229.908 106.374 228.679C107.369 229.828 108.197 231.118 108.948 232.439C109.687 233.773 110.367 235.138 110.976 236.533C112.21 239.317 113.246 242.183 114.196 245.072C115.129 247.966 115.982 250.886 116.738 253.829C117.507 256.773 118.198 259.729 118.804 262.716L118.089 262.368C120.141 261.33 122.206 260.318 124.267 259.296C126.325 258.271 128.397 257.275 130.463 256.263C132.534 255.264 134.603 254.262 136.683 253.278C138.761 252.292 140.844 251.316 142.937 250.361Z" fill="#545454"/>
<path d="M86.1052 259.525L87.3427 261.765L88.5669 264.013C89.3847 265.509 90.2066 267.003 91.0391 268.491C91.8652 269.982 92.6959 271.471 93.5438 272.949L94.8197 275.161C95.2482 275.902 95.67 276.646 96.0853 277.391C97.757 280.354 99.3953 283.354 101.643 285.826C102.214 286.431 102.796 287.024 103.443 287.536C103.755 287.806 104.096 288.036 104.428 288.275C104.776 288.494 105.119 288.72 105.485 288.908C106.926 289.702 108.52 290.206 110.151 290.477C113.423 291.025 116.832 290.629 120.02 289.637C121.618 289.143 123.17 288.491 124.641 287.691C125.374 287.289 126.087 286.848 126.777 286.375C127.464 285.901 128.11 285.376 128.778 284.835C131.428 282.687 134.091 280.553 136.757 278.426L140.773 275.253L142.781 273.667L144.802 272.096L142.881 273.788L140.947 275.464L137.079 278.814C134.49 281.037 131.897 283.251 129.291 285.453C128.646 286.001 127.981 286.568 127.276 287.08C126.569 287.585 125.834 288.051 125.079 288.481C123.565 289.331 121.967 290.031 120.314 290.567C118.66 291.102 116.948 291.46 115.213 291.635C113.478 291.8 111.715 291.777 109.981 291.491C108.252 291.195 106.549 290.649 105.003 289.792C104.61 289.586 104.242 289.341 103.869 289.104C103.512 288.844 103.145 288.594 102.814 288.303C102.124 287.752 101.509 287.124 100.921 286.478C99.7686 285.164 98.7724 283.738 97.8822 282.265C96.9845 280.797 96.1788 279.283 95.3826 277.774C94.984 277.02 94.5831 276.27 94.1752 275.526C93.764 274.777 93.3543 274.028 92.9554 273.273C92.1554 271.764 91.3674 270.25 90.5957 268.726C89.8299 267.201 89.0757 265.669 88.3258 264.137L87.2052 261.838L86.1052 259.525Z" fill="#545454"/>
<path d="M113.981 275.13C113.889 274.823 113.817 274.509 113.749 274.192C113.685 273.876 113.604 273.556 113.587 273.235C113.538 272.593 113.476 271.937 113.536 271.29C113.58 269.982 113.89 268.692 114.336 267.459C114.783 266.225 115.451 265.074 116.257 264.05C117.069 263.032 118.036 262.116 119.198 261.526C118.473 262.592 117.84 263.643 117.271 264.719C116.705 265.793 116.191 266.877 115.781 268.005C115.375 269.13 114.992 270.271 114.734 271.46C114.564 272.047 114.484 272.653 114.342 273.263C114.211 273.873 114.144 274.494 113.981 275.13Z" fill="#545454"/>
<path d="M164.998 271.762L149.667 265.355C148.713 264.956 148.49 263.702 149.25 262.999L188.798 226.367C189.492 225.726 190.608 225.927 191.034 226.771L199.404 243.38C199.723 244.011 199.56 244.781 199.012 245.229L166.969 271.473C166.416 271.927 165.658 272.037 164.998 271.762Z" fill="#838383"/>
<path d="M146.273 292.624C146.022 291.051 145.819 289.472 145.637 287.894C145.542 287.103 145.457 286.313 145.378 285.522C145.294 284.732 145.214 283.941 145.147 283.151C144.995 281.57 144.875 279.984 144.754 278.4C144.688 277.609 144.649 276.816 144.594 276.023C144.545 275.23 144.488 274.44 144.452 273.644L144.438 273.335L144.691 273.196C145.469 272.774 146.241 272.341 147.024 271.926C147.808 271.514 148.585 271.09 149.374 270.688C150.162 270.281 150.95 269.874 151.745 269.483C152.539 269.086 153.338 268.7 154.145 268.329C153.416 268.836 152.679 269.331 151.937 269.815C151.196 270.304 150.448 270.778 149.699 271.252C148.952 271.731 148.193 272.187 147.441 272.655C146.687 273.121 145.924 273.569 145.166 274.025L145.405 273.577C145.481 274.368 145.536 275.161 145.598 275.954C145.656 276.744 145.728 277.535 145.774 278.328C145.878 279.914 145.981 281.498 146.054 283.086C146.099 283.88 146.13 284.673 146.159 285.468C146.192 286.261 146.219 287.055 146.236 287.85C146.279 289.439 146.299 291.03 146.273 292.624Z" fill="#545454"/>
<path d="M184.848 259.33C184.788 258.936 184.677 258.539 184.582 258.158C184.383 257.365 184.195 256.569 184.002 255.773C183.733 254.669 183.464 253.564 183.195 252.457C182.922 251.334 181.788 250.641 180.663 250.917C179.537 251.19 178.847 252.323 179.121 253.448L179.198 253.765C178.703 253.345 178.023 253.16 177.345 253.325C176.22 253.598 175.53 254.731 175.803 255.856C175.888 256.206 175.973 256.554 176.059 256.904C176.013 256.793 175.917 256.708 175.818 256.641C175.142 256.18 174.015 256.294 173.567 257.027C173.297 257.468 173.384 257.978 173.42 258.467C173.583 260.694 173.905 262.919 174.149 265.141L170.071 268.932L171.004 270.387C171.846 270.096 172.625 269.931 173.468 269.64C174.587 269.254 175.736 268.939 176.82 268.458C177.684 268.074 178.426 267.526 179.143 266.915C180.52 265.741 181.756 264.397 182.928 263.022C183.467 262.391 183.998 261.75 184.499 261.088C184.908 260.548 184.94 259.94 184.848 259.33Z" fill="#EB9481"/>
<path d="M174.149 265.141C174.149 265.141 173.691 266.895 174.553 268.19C174.553 268.19 173.039 267.837 173.568 265.68L174.149 265.141Z" fill="#545454"/>
<path d="M179.198 253.765C179.777 254.221 180.232 254.859 180.451 255.583C180.678 256.288 180.855 257.002 181.037 257.715C181.211 258.431 181.382 259.147 181.531 259.868L181.752 260.949C181.816 261.312 181.889 261.673 181.945 262.038C181.832 261.686 181.735 261.333 181.629 260.978L181.338 259.914C181.144 259.203 180.967 258.49 180.788 257.777L180.262 255.637C180.176 255.284 180.039 254.955 179.854 254.64C179.675 254.324 179.453 254.03 179.198 253.765Z" fill="#545454"/>
<path d="M176.059 256.907C176.605 257.254 177.106 257.764 177.293 258.428C177.481 259.062 177.614 259.701 177.752 260.339C177.882 260.98 178.007 261.621 178.111 262.268L178.264 263.236C178.306 263.56 178.355 263.882 178.388 264.209C178.298 263.893 178.224 263.576 178.14 263.259L177.916 262.306C177.767 261.67 177.635 261.029 177.5 260.393C177.369 259.755 177.242 259.111 177.103 258.48C177.039 258.168 176.899 257.888 176.711 257.625C176.53 257.36 176.304 257.123 176.059 256.907Z" fill="#545454"/>
<path d="M151.533 262.813C153.053 261.325 154.599 259.868 156.137 258.403C157.671 256.93 159.226 255.482 160.775 254.028L165.447 249.691L170.144 245.383C173.289 242.528 176.434 239.669 179.605 236.839L181.978 234.715L184.364 232.601C185.953 231.19 187.545 229.784 189.147 228.388L189.533 228.051L189.757 228.496L191.569 232.096L193.364 235.704L195.135 239.324C195.729 240.527 196.311 241.74 196.887 242.953C196.218 241.789 195.553 240.62 194.901 239.445L192.933 235.928L190.989 232.4L189.062 228.862L189.672 228.97C188.117 230.42 186.554 231.857 184.986 233.291L182.637 235.444L180.276 237.586C177.134 240.447 173.966 243.277 170.799 246.109L166.027 250.335L161.229 254.532C159.622 255.923 158.021 257.318 156.399 258.691C154.78 260.069 153.17 261.456 151.533 262.813Z" fill="#545454"/>
</svg>
